<svg width="301" height="181" viewBox="0 0 301 181" fill="none" xmlns="http://www.w3.org/2000/svg">
<path d="M186.897 64.6364C185.589 61.1762 182.562 54.5893 175.97 48.8518C165.381 39.6386 153.239 39.2686 150.034 39.279C145.135 39.2894 136.125 40.217 127.397 46.4235C118.204 52.9634 114.598 61.6192 113.431 64.8396H127.902C129.075 62.7969 131.482 59.2376 135.797 56.3403C142.337 51.9473 149.002 51.9421 151.488 52.0724C159.68 52.5101 165.068 56.7155 166.866 58.159C169.732 60.4623 171.603 62.9063 172.734 64.6364H186.903H186.897Z" fill="#242263"/>
<path d="M114.666 37.257C114.666 40.4567 112.071 43.0518 108.876 43.0518C107.141 43.0518 105.588 42.291 104.53 41.082L95.2127 31.6967C93.7796 30.6389 92.8468 28.9401 92.8468 27.0224C92.8468 23.8227 95.4368 21.2328 98.6364 21.2328C99.8819 21.2328 101.039 21.6236 101.982 22.2959L103.358 23.6664L112.409 32.6764L113.436 33.6978C114.207 34.6775 114.666 35.9126 114.666 37.257Z" fill="#242263"/>
<path d="M189.347 85.3298C189.347 88.5972 186.694 91.2497 183.422 91.2497H117.115C113.848 91.2497 111.195 88.5972 111.195 85.3298C111.195 82.0624 113.848 79.4047 117.115 79.4047H183.422C186.694 79.4047 189.347 82.0572 189.347 85.3298Z" fill="#242263"/>
<path d="M154.286 24.3647C152.025 26.6263 148.356 26.6263 146.094 24.3647C144.87 23.1401 144.307 21.5038 144.416 19.8987L144.463 6.67287C144.197 4.91151 144.739 3.05112 146.094 1.69623C148.356 -0.565409 152.019 -0.565409 154.281 1.69623C155.162 2.57691 155.704 3.67125 155.896 4.81249V6.75625L155.928 19.5287V20.9774C155.782 22.2177 155.235 23.411 154.286 24.3647Z" fill="#242263"/>
<path d="M191.629 43.0518C188.43 43.0518 185.834 40.4567 185.834 37.2622C185.834 35.5269 186.595 33.974 187.804 32.9162L197.189 23.5986C198.247 22.1656 199.946 21.2328 201.864 21.2328C205.064 21.2328 207.653 23.8227 207.653 27.0224C207.653 28.2678 207.263 29.4247 206.59 30.3679L205.22 31.7436L196.21 40.7954L195.188 41.822C194.209 42.5932 192.974 43.0518 191.629 43.0518Z" fill="#242263"/>
<path d="M153.979 117.394H143.452V166.639H153.979V117.394Z" fill="#242263"/>
<path d="M192.697 119.145H180.826V166.639H192.697V119.145Z" fill="#242263"/>
<path d="M220.092 119.145H208.758V166.639H220.092V119.145Z" fill="#242263"/>
<path d="M259.895 133.72V154.633C257.858 162.059 251.099 167.259 243.433 167.311C235.674 167.369 228.779 162.147 226.721 154.633V133.72H237.091V153.283C238.175 155.795 240.64 157.436 243.365 157.468C246.138 157.494 248.67 155.842 249.775 153.283V133.72H259.895Z" fill="#242263"/>
<path d="M57.5049 133.043C48.0415 133.043 40.3707 140.714 40.3707 150.177C40.3707 159.641 48.0415 167.311 57.5049 167.311C66.9683 167.311 74.6443 159.641 74.6443 150.177C74.6443 140.714 66.9683 133.043 57.5049 133.043ZM57.5049 157.264C53.6695 157.264 50.5584 154.153 50.5584 150.313C50.5584 146.472 53.6695 143.366 57.5049 143.366C61.3403 143.366 64.4565 146.477 64.4565 150.313C64.4565 154.148 61.3455 157.264 57.5049 157.264Z" fill="#232463"/>
<path d="M95.5566 133.178C86.0932 133.178 78.4224 140.849 78.4224 150.313C78.4224 159.776 86.0932 167.447 95.5566 167.447C105.02 167.447 112.691 159.776 112.691 150.313C112.691 140.849 105.02 133.178 95.5566 133.178ZM95.5566 157.395C91.716 157.395 88.605 154.284 88.605 150.448C88.605 146.613 91.716 143.502 95.5566 143.502C99.3972 143.502 102.503 146.613 102.503 150.448C102.503 154.284 99.392 157.395 95.5566 157.395Z" fill="#232463"/>
<path d="M283.236 133.178C273.772 133.178 266.096 140.849 266.096 150.313C266.096 159.776 273.772 167.447 283.236 167.447C292.699 167.447 300.37 159.776 300.37 150.313C300.37 140.849 292.699 133.178 283.236 133.178ZM283.236 157.395C279.395 157.395 276.284 154.284 276.284 150.448C276.284 146.613 279.395 143.502 283.236 143.502C287.076 143.502 290.182 146.613 290.182 150.448C290.182 154.284 287.071 157.395 283.236 157.395Z" fill="#232463"/>
<path d="M118.361 150.177H129.017C129.017 150.177 128.512 143.429 136.912 143.497L139.544 133.715C139.544 133.715 120.45 129.666 118.361 150.177Z" fill="#242263"/>
<path d="M27.6243 133.043L33.8985 124.544C32.1736 123.215 23.5127 116.795 13.5959 119.088C11.5166 119.567 7.56136 120.484 4.65354 124.142C1.60503 127.973 1.65192 132.36 1.71967 133.72C1.77699 135.159 2.12614 137.254 3.29864 139.38C4.98184 142.423 8.44725 145.899 15.5813 147.618C19.7346 148.619 22.1109 149.812 22.7935 152.011C23.1166 153.054 23.0124 154.466 22.262 155.513C21.1364 157.082 18.9946 157.238 18.6194 157.27C18.2859 157.296 18.0097 157.285 17.8117 157.27C16.5245 157.238 14.3306 157.014 11.8918 155.894C9.36963 154.737 7.73853 153.148 6.87869 152.173L0 159.964C0 159.964 6.47745 167.859 18.5204 167.452C30.5633 167.046 33.9037 158.65 33.9037 158.65C34.4144 157.78 36.2956 154.33 35.3211 150.047C34.7739 147.629 33.5441 145.961 32.7937 145.086C30.6415 143.09 28.6769 141.923 27.3272 141.24C24.4976 139.807 21.1155 138.78 19.5366 138.306C16.1128 137.28 14.9924 137.233 13.9711 135.977C13.0435 134.836 12.3817 132.928 13.0904 131.245C14.0961 128.858 17.1551 128.541 17.6501 128.494C19.4897 128.306 20.8758 128.983 22.929 129.979C24.2422 130.615 25.8994 131.584 27.6295 133.043H27.6243Z" fill="#242263"/>
<path opacity="0.8" d="M50.7617 133.72H40.3707V180.136H50.7617V133.72Z" fill="#459BC9"/>
<path opacity="0.8" d="M112.691 150.313H102.034V166.639H112.691V150.313Z" fill="#459BC9"/>
<path opacity="0.8" d="M129.017 133.72H118.361V166.639H129.017V133.72Z" fill="#459BC9"/>
<path opacity="0.8" d="M276.628 117.394H266.102V166.639H276.628V117.394Z" fill="#459BC9"/>
<path opacity="0.8" d="M220.087 138.442H180.826V149.505H220.087V138.442Z" fill="#459BC9"/>
<path opacity="0.8" d="M163.286 133.72H176.913L157.35 150.177L176.913 166.639H163.15L143.452 150.448L163.286 133.72Z" fill="#459BC9"/>
</svg>
